<svg id="visual" viewBox="0 0 900 600" width="900" height="600" xmlns="http://www.w3.org/2000/svg" xmlns:xlink="http://www.w3.org/1999/xlink" version="1.1"><rect x="0" y="0" width="900" height="600" fill="#151218"></rect><path d="M0 130L21.5 129.2C43 128.3 86 126.7 128.8 128C171.7 129.3 214.3 133.7 257.2 144.3C300 155 343 172 385.8 185.5C428.7 199 471.3 209 514.2 209.2C557 209.3 600 199.7 642.8 185C685.7 170.3 728.3 150.7 771.2 133.2C814 115.7 857 100.3 878.5 92.7L900 85L900 0L878.5 0C857 0 814 0 771.2 0C728.3 0 685.7 0 642.8 0C600 0 557 0 514.2 0C471.3 0 428.7 0 385.8 0C343 0 300 0 257.2 0C214.3 0 171.7 0 128.8 0C86 0 43 0 21.5 0L0 0Z" fill="#352D40" stroke-linecap="round" stroke-linejoin="miter"></path></svg>